<svg width="433" height="100" viewBox="0 0 433 100" fill="none" xmlns="http://www.w3.org/2000/svg">
<g clip-path="url(#clip0)">
<path d="M147.793 39.493C146.001 39.493 144.507 39.0336 143.312 38.1148C142.117 37.196 141.341 35.9901 141.042 34.6119H134.65C134.829 36.5644 135.426 38.3445 136.502 39.895C137.577 41.4455 139.071 42.7088 140.982 43.5702C142.894 44.4315 145.164 44.8909 147.793 44.8909C150.302 44.8909 152.572 44.3741 154.484 43.283C156.396 42.192 157.949 40.6989 159.025 38.8614C160.1 37.0238 160.638 34.8416 160.638 32.4298C160.638 30.3051 160.22 28.3526 159.323 26.5725C158.427 24.7923 157.113 23.3567 155.44 22.2082C153.708 21.1171 151.617 20.5429 149.048 20.5429C147.435 20.5429 146.001 20.7726 144.686 21.2894C143.372 21.8062 142.356 22.4379 141.58 23.2419L143.193 15.2598H158.188V9.74707H138.294L135.187 29.5011H141.52C141.998 28.4101 142.775 27.4913 143.91 26.8022C145.045 26.0557 146.359 25.7111 147.913 25.7111C149.765 25.7111 151.318 26.3428 152.513 27.5487C153.708 28.7546 154.365 30.4199 154.365 32.4872C154.365 34.4971 153.767 36.1624 152.513 37.5406C151.318 38.8613 149.705 39.493 147.793 39.493Z" fill="#00070E"/>
<path d="M193.018 9.74707H165.477V14.8579H175.932V44.3167H182.503V14.8579H193.018V9.74707Z" fill="#00070E"/>
<path d="M223.189 24.1032H207.059V9.74707H200.487V44.3167H207.059V29.2714H223.189V44.3167H229.761V9.74707H223.189V24.1032Z" fill="#00070E"/>
<path d="M157.592 57.5817C154.844 56.1461 151.379 55.457 147.197 55.457H134.95V90.0266H147.197C151.379 90.0266 154.844 89.3376 157.592 87.9019C160.34 86.4663 162.312 84.4565 163.626 81.8724C164.94 79.2882 165.598 76.2447 165.598 72.7418C165.598 69.2389 164.94 66.1954 163.626 63.6113C162.312 61.0272 160.34 59.0174 157.592 57.5817ZM157.771 79.116C156.995 80.8961 155.74 82.2169 154.008 83.1357C152.275 84.0545 149.885 84.5139 146.898 84.5139H141.521V60.7975H146.898C149.885 60.7975 152.275 61.2569 154.008 62.2331C155.74 63.2094 156.995 64.5301 157.771 66.3103C158.548 68.0904 158.906 70.2152 158.906 72.6844C158.906 75.2111 158.548 77.3358 157.771 79.116Z" fill="#00070E"/>
<path d="M180.591 55.457H174.02V90.0266H180.591V55.457Z" fill="#00070E"/>
<path d="M209.388 77.3358L197.917 55.457H190.091V89.9692H196.663V66.138L206.699 85.0307H211.897L221.874 66.138V89.9692H228.446V55.457H220.679L209.388 77.3358Z" fill="#00070E"/>
<path d="M238.004 89.9692H261.483V84.9159H244.576V74.924H259.93V69.9855H244.576V60.5104H261.483V55.457H238.004V89.9692Z" fill="#00070E"/>
<path d="M293.745 79.7476L276.838 55.457H270.266V89.9692H276.838V65.6786L293.745 89.9692H300.317V55.457H293.745V79.7476Z" fill="#00070E"/>
<path d="M329.889 72.2826C328.396 71.4786 326.783 70.7895 324.99 70.2153C323.317 69.6985 321.824 69.1816 320.51 68.7222C319.195 68.2628 318.18 67.6886 317.403 66.9995C316.626 66.3104 316.268 65.3916 316.268 64.2431C316.268 62.9224 316.746 61.8887 317.702 61.1422C318.658 60.4531 319.912 60.1086 321.346 60.1086C323.019 60.1086 324.333 60.5679 325.289 61.4867C326.245 62.4055 326.723 63.4966 326.723 64.7025H333.772C333.713 62.6352 333.175 60.9125 332.1 59.4195C331.084 57.9264 329.59 56.7779 327.798 55.974C325.946 55.17 323.855 54.7681 321.465 54.7681C319.076 54.7681 317.045 55.17 315.192 55.974C313.4 56.7779 311.966 57.9264 310.891 59.362C309.875 60.7976 309.338 62.5778 309.397 64.6451C309.397 67.0569 310.114 68.9519 311.608 70.445C313.042 71.8806 315.192 73.0865 317.941 74.0053C319.673 74.5795 321.286 75.0964 322.78 75.5558C324.273 76.0726 325.468 76.7042 326.424 77.5082C327.32 78.3121 327.798 79.4032 327.798 80.8388C327.798 82.1596 327.26 83.2506 326.245 84.0546C325.229 84.8585 323.855 85.2605 322.063 85.2605C320.032 85.2605 318.478 84.6863 317.343 83.5952C316.208 82.5041 315.611 81.1259 315.491 79.5181H308.561C308.621 81.8725 309.218 83.8249 310.353 85.4902C311.488 87.0981 313.101 88.3614 315.133 89.2228C317.164 90.0842 319.494 90.5436 322.123 90.5436C324.871 90.5436 327.141 90.0842 329.053 89.1654C330.905 88.2466 332.339 86.9832 333.294 85.4328C334.25 83.8823 334.728 82.217 334.728 80.3794C334.728 78.3121 334.31 76.6468 333.414 75.3835C332.518 74.1201 331.323 73.0291 329.889 72.2826Z" fill="#00070E"/>
<path d="M349.603 55.457H343.031V90.0266H349.603V55.457Z" fill="#00070E"/>
<path d="M385.389 57.1227C382.701 55.6296 379.534 54.8257 376.01 54.8257C372.425 54.8257 369.259 55.5722 366.57 57.1227C363.882 58.6157 361.791 60.7404 360.237 63.4394C358.744 66.1383 357.967 69.2393 357.967 72.7422C357.967 76.2451 358.744 79.346 360.237 82.0449C361.731 84.7439 363.882 86.8112 366.57 88.3616C369.259 89.8547 372.425 90.6586 376.01 90.6586C379.594 90.6586 382.701 89.9121 385.389 88.3616C388.078 86.8686 390.169 84.7439 391.722 82.0449C393.215 79.346 393.992 76.2451 393.992 72.7422C393.992 69.2393 393.215 66.1383 391.722 63.4394C390.228 60.7404 388.137 58.6157 385.389 57.1227ZM384.194 81.643C382.163 83.8251 379.415 84.9162 376.01 84.9162C372.604 84.9162 369.856 83.8251 367.825 81.643C365.794 79.4608 364.718 76.4748 364.718 72.6847C364.718 68.8947 365.734 65.9086 367.825 63.7265C369.856 61.5444 372.604 60.4533 376.01 60.4533C379.415 60.4533 382.163 61.5444 384.194 63.7265C386.226 65.9086 387.241 68.8947 387.241 72.6847C387.241 76.4748 386.226 79.4608 384.194 81.643Z" fill="#00070E"/>
<path d="M425.836 55.457V79.7476L408.929 55.457H402.357V89.9692H408.929V65.6786L425.836 89.9692H432.408V55.457H425.836Z" fill="#00070E"/>
<path d="M73.4735 0.702637L60.2106 22.5814L46.9477 0.702637H15.9413L0.408203 26.5437L44.6775 99.7026H75.684L120.013 26.5437L104.48 0.702637H73.4735ZM111.769 23.7873L90.5599 23.7299L80.0452 6.15797H101.254L111.769 23.7873ZM46.3503 91.5484L8.59295 29.2427L29.8016 29.1852L56.865 74.0338L46.3503 91.5484ZM60.2106 68.5785L34.7602 26.4289L45.3347 8.85693L57.7612 29.3575L70.8448 51.0066L60.2106 68.5785ZM74.1306 45.5512L63.4965 27.9793L75.0865 8.85693L85.661 26.4289L74.1306 45.5512ZM19.1674 6.15797H40.376L29.8016 23.7299L8.59295 23.7873L19.1674 6.15797ZM72.4578 94.2473H51.2492L90.5599 29.1852L111.769 29.2427L72.4578 94.2473Z" fill="#E00238"/>
</g>
<defs>
<clipPath id="clip0">
<rect width="432" height="99" fill="white" transform="translate(0.408203 0.702637)"/>
</clipPath>
</defs>
</svg>
