<svg width="176" height="39" viewBox="0 0 176 39" fill="none" xmlns="http://www.w3.org/2000/svg">
<path d="M60.0456 15.281C59.3154 15.281 58.7069 15.1 58.2202 14.738C57.7334 14.3761 57.4169 13.901 57.2953 13.3581H54.6909C54.7639 14.1273 55.0073 14.8285 55.4454 15.4393C55.8836 16.0501 56.492 16.5478 57.2709 16.8871C58.0498 17.2264 58.9747 17.4074 60.0456 17.4074C61.0679 17.4074 61.9928 17.2038 62.7717 16.774C63.5505 16.3442 64.1834 15.756 64.6215 15.0321C65.0596 14.3082 65.2786 13.4486 65.2786 12.4985C65.2786 11.6615 65.1083 10.8923 64.7432 10.1911C64.3781 9.48978 63.8426 8.92423 63.1611 8.4718C62.4552 8.04198 61.6034 7.81577 60.5568 7.81577C59.8996 7.81577 59.3154 7.90625 58.78 8.10985C58.2445 8.31345 57.8307 8.56229 57.5143 8.87899L58.1715 5.73456H64.2807V3.56287H56.1756L54.91 11.3448H57.49C57.6847 10.915 58.0011 10.553 58.4636 10.2815C58.926 9.98746 59.4615 9.85173 60.0943 9.85173C60.8488 9.85173 61.4817 10.1006 61.9685 10.5756C62.4552 11.0507 62.723 11.7067 62.723 12.5211C62.723 13.3129 62.4796 13.9689 61.9685 14.5118C61.4817 15.0321 60.8245 15.281 60.0456 15.281Z" fill="#FEFEFE"/>
<path d="M78.4708 3.56287H67.2502V5.57621H71.5097V17.1812H74.187V5.57621H78.4708V3.56287Z" fill="#FEFEFE"/>
<path d="M90.7625 9.21832H84.1908V3.56287H81.5134V17.1812H84.1908V11.2543H90.7625V17.1812H93.4399V3.56287H90.7625V9.21832Z" fill="#FEFEFE"/>
<path d="M64.0377 22.4068C62.9181 21.8413 61.5064 21.5698 59.8026 21.5698H54.813V35.1882H59.8026C61.5064 35.1882 62.9181 34.9167 64.0377 34.3512C65.1573 33.7856 65.9605 32.9938 66.496 31.9759C67.0315 30.9579 67.2992 29.7589 67.2992 28.379C67.2992 26.9991 67.0315 25.8001 66.496 24.7821C65.9605 23.7641 65.1573 22.9724 64.0377 22.4068ZM64.1107 30.89C63.7943 31.5913 63.2832 32.1116 62.5773 32.4735C61.8715 32.8355 60.8979 33.0165 59.6809 33.0165H57.4903V23.6737H59.6809C60.8979 23.6737 61.8715 23.8546 62.5773 24.2392C63.2832 24.6238 63.7943 25.1441 64.1107 25.8453C64.4271 26.5466 64.5732 27.3836 64.5732 28.3564C64.5732 29.3517 64.4271 30.1887 64.1107 30.89Z" fill="#FEFEFE"/>
<path d="M73.4079 21.5698H70.7306V35.1882H73.4079V21.5698Z" fill="#FEFEFE"/>
<path d="M85.1398 30.1887L80.4666 21.5698H77.2781V35.1655H79.9554V25.7775L84.0445 33.2201H86.162L90.2267 25.7775V35.1655H92.9041V21.5698H89.74L85.1398 30.1887Z" fill="#FEFEFE"/>
<path d="M96.7982 35.1655H106.364V33.1748H99.4756V29.2386H105.731V27.2931H99.4756V23.5605H106.364V21.5698H96.7982V35.1655Z" fill="#FEFEFE"/>
<path d="M119.507 31.1389L112.619 21.5698H109.942V35.1655H112.619V25.5965L119.507 35.1655H122.185V21.5698H119.507V31.1389Z" fill="#FEFEFE"/>
<path d="M134.233 28.198C133.624 27.8813 132.967 27.6098 132.237 27.3836C131.556 27.18 130.947 26.9764 130.412 26.7954C129.876 26.6145 129.462 26.3882 129.146 26.1168C128.83 25.8453 128.684 25.4834 128.684 25.0309C128.684 24.5106 128.878 24.1034 129.268 23.8094C129.657 23.5379 130.168 23.4022 130.752 23.4022C131.434 23.4022 131.969 23.5831 132.359 23.9451C132.748 24.307 132.943 24.7369 132.943 25.2119H135.815C135.791 24.3975 135.572 23.7189 135.133 23.1307C134.72 22.5425 134.111 22.0901 133.381 21.7734C132.627 21.4567 131.775 21.2983 130.801 21.2983C129.827 21.2983 129 21.4567 128.245 21.7734C127.515 22.0901 126.931 22.5425 126.493 23.1081C126.079 23.6736 125.86 24.3749 125.884 25.1893C125.884 26.1394 126.177 26.8859 126.785 27.4741C127.369 28.0396 128.245 28.5147 129.365 28.8766C130.071 29.1029 130.728 29.3065 131.337 29.4874C131.945 29.691 132.432 29.9399 132.821 30.2566C133.186 30.5733 133.381 31.0031 133.381 31.5686C133.381 32.0889 133.162 32.5188 132.748 32.8355C132.334 33.1522 131.775 33.3105 131.044 33.3105C130.217 33.3105 129.584 33.0843 129.122 32.6545C128.659 32.2247 128.416 31.6817 128.367 31.0483H125.544C125.568 31.9758 125.811 32.745 126.274 33.401C126.736 34.0344 127.394 34.5321 128.221 34.8714C129.049 35.2107 129.998 35.3917 131.069 35.3917C132.188 35.3917 133.113 35.2107 133.892 34.8488C134.647 34.4868 135.231 33.9892 135.62 33.3784C136.01 32.7676 136.204 32.1116 136.204 31.3877C136.204 30.5733 136.034 29.9172 135.669 29.4196C135.304 28.9219 134.817 28.4921 134.233 28.198Z" fill="#FEFEFE"/>
<path d="M142.265 21.5698H139.587V35.1882H142.265V21.5698Z" fill="#FEFEFE"/>
<path d="M156.844 22.2259C155.749 21.6378 154.459 21.321 153.023 21.321C151.562 21.321 150.272 21.6151 149.177 22.2259C148.082 22.8141 147.23 23.6511 146.597 24.7143C145.989 25.7775 145.672 26.9991 145.672 28.3791C145.672 29.759 145.989 30.9806 146.597 32.0438C147.206 33.107 148.082 33.9214 149.177 34.5322C150.272 35.1204 151.562 35.4371 153.023 35.4371C154.483 35.4371 155.749 35.143 156.844 34.5322C157.939 33.944 158.791 33.107 159.424 32.0438C160.032 30.9806 160.349 29.759 160.349 28.3791C160.349 26.9991 160.032 25.7775 159.424 24.7143C158.815 23.6511 157.964 22.8141 156.844 22.2259ZM156.357 31.8854C155.53 32.7451 154.41 33.1749 153.023 33.1749C151.635 33.1749 150.516 32.7451 149.688 31.8854C148.861 31.0258 148.422 29.8495 148.422 28.3564C148.422 26.8634 148.836 25.6871 149.688 24.8274C150.516 23.9678 151.635 23.538 153.023 23.538C154.41 23.538 155.53 23.9678 156.357 24.8274C157.185 25.6871 157.599 26.8634 157.599 28.3564C157.599 29.8495 157.185 31.0258 156.357 31.8854Z" fill="#FEFEFE"/>
<path d="M173.323 21.5698V31.1389L166.434 21.5698H163.757V35.1655H166.434V25.5965L173.323 35.1655H176V21.5698H173.323Z" fill="#FEFEFE"/>
<path d="M29.7673 0L24.3639 8.61891L18.9605 0H6.3283L0 10.1798L18.0356 39H30.6679L48.7279 10.1798L42.3996 0H29.7673ZM45.369 9.09397L36.7285 9.07135L32.4447 2.14907H41.0852L45.369 9.09397ZM18.7172 35.7877L3.33453 11.243L11.9751 11.2204L23.0009 28.8881L18.7172 35.7877ZM24.3639 26.739L13.9953 10.1346L18.3034 3.2123L23.366 11.2883L28.6964 19.8167L24.3639 26.739ZM30.0351 17.6676L25.7026 10.7454L30.4245 3.2123L34.7326 10.1346L30.0351 17.6676ZM7.64263 2.14907H16.2832L11.9751 9.07135L3.33453 9.09397L7.64263 2.14907ZM29.3536 36.8509H20.713L36.7285 11.2204L45.369 11.243L29.3536 36.8509Z" fill="#FEFEFE"/>
</svg>
