<svg width="433" height="100" viewBox="0 0 433 100" fill="none" xmlns="http://www.w3.org/2000/svg">
<g clip-path="url(#clip0)">
<path d="M147.793 39.2933C146.001 39.2933 144.507 38.8339 143.312 37.9151C142.117 36.9963 141.341 35.7904 141.042 34.4122H134.65C134.829 36.3647 135.426 38.1448 136.502 39.6953C137.577 41.2457 139.071 42.5091 140.982 43.3705C142.894 44.2318 145.164 44.6912 147.793 44.6912C150.302 44.6912 152.572 44.1744 154.484 43.0833C156.396 41.9923 157.949 40.4992 159.025 38.6616C160.1 36.8241 160.638 34.6419 160.638 32.2301C160.638 30.1054 160.22 28.1529 159.323 26.3728C158.427 24.5926 157.113 23.157 155.44 22.0085C153.708 20.9174 151.617 20.3432 149.048 20.3432C147.435 20.3432 146.001 20.5729 144.686 21.0897C143.372 21.6065 142.356 22.2382 141.58 23.0421L143.193 15.0601H158.188V9.54736H138.294L135.187 29.3014H141.52C141.998 28.2104 142.775 27.2916 143.91 26.6025C145.045 25.856 146.359 25.5114 147.913 25.5114C149.765 25.5114 151.318 26.1431 152.513 27.349C153.708 28.5549 154.365 30.2202 154.365 32.2875C154.365 34.2974 153.767 35.9627 152.513 37.3409C151.318 38.6616 149.705 39.2933 147.793 39.2933Z" fill="#00070E"/>
<path d="M193.018 9.54736H165.477V14.6582H175.932V44.117H182.503V14.6582H193.018V9.54736Z" fill="#00070E"/>
<path d="M223.189 23.9035H207.059V9.54736H200.487V44.117H207.059V29.0717H223.189V44.117H229.761V9.54736H223.189V23.9035Z" fill="#00070E"/>
<path d="M157.592 57.382C154.844 55.9464 151.379 55.2573 147.197 55.2573H134.95V89.8269H147.197C151.379 89.8269 154.844 89.1378 157.592 87.7022C160.34 86.2666 162.312 84.2568 163.626 81.6726C164.94 79.0885 165.598 76.045 165.598 72.5421C165.598 69.0392 164.94 65.9957 163.626 63.4116C162.312 60.8275 160.34 58.8177 157.592 57.382ZM157.771 78.9163C156.995 80.6964 155.74 82.0172 154.008 82.936C152.275 83.8548 149.885 84.3142 146.898 84.3142H141.521V60.5978H146.898C149.885 60.5978 152.275 61.0572 154.008 62.0334C155.74 63.0096 156.995 64.3304 157.771 66.1106C158.548 67.8907 158.906 70.0155 158.906 72.4847C158.906 75.0114 158.548 77.1361 157.771 78.9163Z" fill="#00070E"/>
<path d="M180.591 55.2573H174.02V89.8269H180.591V55.2573Z" fill="#00070E"/>
<path d="M209.388 77.1361L197.917 55.2573H190.091V89.7695H196.663V65.9383L206.699 84.831H211.897L221.874 65.9383V89.7695H228.446V55.2573H220.679L209.388 77.1361Z" fill="#00070E"/>
<path d="M238.004 89.7695H261.483V84.7161H244.576V74.7243H259.93V69.7858H244.576V60.3107H261.483V55.2573H238.004V89.7695Z" fill="#00070E"/>
<path d="M293.745 79.5479L276.838 55.2573H270.266V89.7695H276.838V65.4789L293.745 89.7695H300.317V55.2573H293.745V79.5479Z" fill="#00070E"/>
<path d="M329.889 72.0828C328.396 71.2789 326.783 70.5898 324.99 70.0156C323.317 69.4987 321.824 68.9819 320.51 68.5225C319.195 68.0631 318.18 67.4889 317.403 66.7998C316.626 66.1107 316.268 65.1919 316.268 64.0434C316.268 62.7226 316.746 61.689 317.702 60.9425C318.658 60.2534 319.912 59.9088 321.346 59.9088C323.019 59.9088 324.333 60.3682 325.289 61.287C326.245 62.2058 326.723 63.2969 326.723 64.5028H333.772C333.713 62.4355 333.175 60.7128 332.1 59.2197C331.084 57.7267 329.59 56.5782 327.798 55.7743C325.946 54.9703 323.855 54.5684 321.465 54.5684C319.076 54.5684 317.045 54.9703 315.192 55.7743C313.4 56.5782 311.966 57.7267 310.891 59.1623C309.875 60.5979 309.338 62.3781 309.397 64.4454C309.397 66.8572 310.114 68.7522 311.608 70.2453C313.042 71.6809 315.192 72.8868 317.941 73.8056C319.673 74.3798 321.286 74.8966 322.78 75.356C324.273 75.8729 325.468 76.5045 326.424 77.3085C327.32 78.1124 327.798 79.2035 327.798 80.6391C327.798 81.9599 327.26 83.0509 326.245 83.8549C325.229 84.6588 323.855 85.0608 322.063 85.0608C320.032 85.0608 318.478 84.4865 317.343 83.3955C316.208 82.3044 315.611 80.9262 315.491 79.3183H308.561C308.621 81.6728 309.218 83.6252 310.353 85.2905C311.488 86.8984 313.101 88.1617 315.133 89.0231C317.164 89.8845 319.494 90.3439 322.123 90.3439C324.871 90.3439 327.141 89.8845 329.053 88.9657C330.905 88.0469 332.339 86.7835 333.294 85.2331C334.25 83.6826 334.728 82.0173 334.728 80.1797C334.728 78.1124 334.31 76.4471 333.414 75.1838C332.518 73.9204 331.323 72.8294 329.889 72.0828Z" fill="#00070E"/>
<path d="M349.603 55.2573H343.031V89.8269H349.603V55.2573Z" fill="#00070E"/>
<path d="M385.389 56.923C382.701 55.4299 379.534 54.626 376.01 54.626C372.425 54.626 369.259 55.3725 366.57 56.923C363.882 58.416 361.791 60.5407 360.237 63.2397C358.744 65.9386 357.967 69.0396 357.967 72.5425C357.967 76.0454 358.744 79.1463 360.237 81.8452C361.731 84.5442 363.882 86.6115 366.57 88.1619C369.259 89.655 372.425 90.4589 376.01 90.4589C379.594 90.4589 382.701 89.7124 385.389 88.1619C388.078 86.6689 390.169 84.5442 391.722 81.8452C393.215 79.1463 393.992 76.0454 393.992 72.5425C393.992 69.0396 393.215 65.9386 391.722 63.2397C390.228 60.5407 388.137 58.416 385.389 56.923ZM384.194 81.4433C382.163 83.6254 379.415 84.7165 376.01 84.7165C372.604 84.7165 369.856 83.6254 367.825 81.4433C365.794 79.2611 364.718 76.275 364.718 72.485C364.718 68.695 365.734 65.7089 367.825 63.5268C369.856 61.3447 372.604 60.2536 376.01 60.2536C379.415 60.2536 382.163 61.3447 384.194 63.5268C386.226 65.7089 387.241 68.695 387.241 72.485C387.241 76.275 386.226 79.2611 384.194 81.4433Z" fill="#00070E"/>
<path d="M425.836 55.2573V79.5479L408.929 55.2573H402.357V89.7695H408.929V65.4789L425.836 89.7695H432.408V55.2573H425.836Z" fill="#00070E"/>
<path d="M73.4735 0.50293L60.2106 22.3817L46.9477 0.50293H15.9413L0.408203 26.344L44.6775 99.5029H75.684L120.013 26.344L104.48 0.50293H73.4735ZM111.769 23.5876L90.5599 23.5302L80.0452 5.95827H101.254L111.769 23.5876ZM46.3503 91.3486L8.59295 29.043L29.8016 28.9855L56.865 73.8341L46.3503 91.3486ZM60.2106 68.3788L34.7602 26.2291L45.3347 8.65722L57.7612 29.1578L70.8448 50.8069L60.2106 68.3788ZM74.1306 45.3515L63.4965 27.7796L75.0865 8.65722L85.661 26.2291L74.1306 45.3515ZM19.1674 5.95827H40.376L29.8016 23.5302L8.59295 23.5876L19.1674 5.95827ZM72.4578 94.0476H51.2492L90.5599 28.9855L111.769 29.043L72.4578 94.0476Z" fill="#00070E"/>
</g>
<defs>
<clipPath id="clip0">
<rect width="432" height="99" fill="white" transform="translate(0.408203 0.50293)"/>
</clipPath>
</defs>
</svg>
