<svg width="199" height="38" viewBox="0 0 199 38" fill="none" xmlns="http://www.w3.org/2000/svg">
<path d="M27.8145 27.0144C26.7832 29.2878 25.4473 31.2332 23.8066 32.8738C22.166 34.5144 20.3613 35.3347 18.416 35.3347H16.9395C15.416 35.3347 14.2207 35.1238 13.3301 34.7019C12.4395 34.28 11.9941 33.741 11.9941 33.0613V19.3269L15.9316 19.2332C17.2676 19.2097 18.4863 19.6082 19.6113 20.405C20.7363 21.2019 21.6035 22.2097 22.2363 23.4285H22.4707V14.0535H22.2363C20.7129 16.5613 18.6035 17.8035 15.9082 17.8035H11.9707V4.02222H15.8379C18.3691 4.02222 20.4785 4.84253 22.166 6.48315C23.8535 8.12378 25.0723 10.0691 25.7988 12.2957H26.1504L25.2832 2.52222H0.134766V2.85034C1.75195 3.55347 2.75977 4.20972 3.1582 4.79565C3.55664 5.38159 3.74414 6.62378 3.74414 8.52222V30.8347C3.74414 32.7332 3.5332 33.9753 3.13477 34.5613C2.73633 35.1472 1.72852 35.8035 0.111328 36.5066V36.8347H26.9473L28.0957 26.991L27.8145 27.0144ZM56.2207 31.2332V20.241C56.2207 18.8582 55.9863 17.6863 55.5176 16.7019C55.0488 15.7175 54.4395 14.9675 53.6895 14.4753C52.9395 13.9832 52.1895 13.6316 51.4395 13.3972C50.6895 13.1628 49.916 13.0457 49.1191 13.0457C45.7676 13.0457 42.9551 14.78 40.6816 18.2253V12.9519C37.2598 13.9832 33.9082 14.5925 30.6504 14.78V15.1082C31.8691 15.8347 32.6426 16.5613 32.9707 17.2644C33.2988 17.9675 33.4629 19.3738 33.4629 21.4832V31.2566C33.4629 32.991 33.2988 34.1394 32.9707 34.7253C32.6426 35.3113 31.8691 35.9207 30.6504 36.5535V36.8816H43.6113V36.5535C42.4395 35.9207 41.6895 35.3113 41.3613 34.7253C41.0332 34.1394 40.8691 32.991 40.8691 31.2566V19.7957C42.3457 17.78 43.8691 16.7722 45.4629 16.7722C46.4941 16.7722 47.3379 17.1472 47.9941 17.8972C48.6504 18.6472 48.9785 19.7957 48.9785 21.3191V27.9519V31.2566C48.9785 32.9675 48.791 34.116 48.4395 34.7019C48.0879 35.2878 47.291 35.8972 46.0488 36.53V36.8582H59.0566V36.53C57.8379 35.8972 57.0645 35.2878 56.7363 34.7019C56.4082 34.116 56.2441 32.9675 56.2441 31.2332H56.2207ZM68.0098 37.3269C71.1738 37.3269 73.7051 35.7566 75.6035 32.5925L75.3691 32.3347C74.3379 33.3894 73.2598 33.9285 72.1348 33.9285C71.2207 33.9285 70.4238 33.6003 69.7676 32.9207C69.1113 32.241 68.8066 31.116 68.8301 29.5222L68.9707 15.155H74.5488L74.7832 13.6785H68.877V7.04565H68.3613C67.0254 9.2019 64.0254 11.6628 59.3848 14.405V15.155H61.6348V30.6707C61.6348 32.8503 62.2441 34.5144 63.4629 35.6394C64.6816 36.7644 66.2051 37.3269 68.0332 37.3269H68.0098ZM97.3535 28.3738C96.0176 31.0222 93.791 32.3347 90.6738 32.3113C88.377 32.3113 86.3848 31.5613 84.7207 30.0847C83.0566 28.6082 82.2129 26.3347 82.2129 23.2878V22.6316H97.5645V22.0457C97.5645 21.2253 97.4004 20.3347 97.0723 19.3972C96.7441 18.4597 96.2051 17.4988 95.4785 16.5144C94.752 15.53 93.6973 14.7097 92.291 14.0535C90.8848 13.3972 89.2676 13.0691 87.4395 13.0691C83.9238 13.0691 81.0645 14.1941 78.8613 16.4441C76.6582 18.6941 75.5566 21.6238 75.5566 25.2332C75.5566 28.9128 76.6816 31.8425 78.9551 34.0222C81.2285 36.2019 84.0645 37.3035 87.4863 37.3035C89.2441 37.3035 90.791 36.9988 92.127 36.3894C93.4629 35.78 94.4941 34.9832 95.2207 33.9753C95.9473 32.9675 96.4863 32.03 96.8613 31.1863C97.2363 30.3425 97.5176 29.4519 97.7051 28.5378L97.3535 28.3738ZM86.666 14.3113C87.4395 14.3113 88.1191 14.5691 88.7051 15.0613C89.291 15.5535 89.7363 16.2097 90.041 17.0066C90.3457 17.8035 90.5566 18.5535 90.6738 19.2566C90.791 19.9597 90.8613 20.6628 90.8848 21.366L82.3066 21.4597C82.4707 19.2097 82.916 17.4519 83.666 16.1863C84.416 14.9207 85.4238 14.2878 86.666 14.2878V14.3113ZM98.9238 36.8582H112.799V36.53C111.205 35.8972 110.197 35.2878 109.775 34.7019C109.354 34.116 109.143 32.9675 109.143 31.2332V19.1394C109.682 17.9675 110.455 17.3816 111.439 17.3816C112.822 17.3582 114.51 18.6707 116.525 21.2957H116.854L117.814 13.5847C117.111 13.2332 116.361 13.0457 115.564 13.0457C113.854 13.0457 112.424 13.5378 111.299 14.5222C110.174 15.5066 109.4 16.5847 108.979 17.78H108.885L108.979 12.9753C105.627 14.0066 102.275 14.616 98.9473 14.8035V15.1316C100.143 15.8113 100.916 16.5144 101.268 17.241C101.619 17.9675 101.783 19.2566 101.783 21.1082V31.28C101.783 33.0144 101.619 34.1628 101.291 34.7488C100.963 35.3347 100.189 35.9441 98.9707 36.5769L98.9238 36.8582ZM139.072 37.3269C142.236 37.3269 144.768 35.7566 146.666 32.5925L146.432 32.3347C145.4 33.3894 144.322 33.9285 143.197 33.9285C142.283 33.9285 141.486 33.6003 140.83 32.9207C140.174 32.241 139.869 31.116 139.893 29.5222L140.033 15.155H145.611L145.846 13.6785H139.939V7.04565H139.424C138.088 9.2019 135.088 11.6628 130.447 14.405V15.155H132.697V30.6707C132.697 32.8503 133.307 34.5144 134.525 35.6394C135.744 36.7644 137.268 37.3269 139.096 37.3269H139.072ZM172.33 31.2332V20.241C172.33 18.8582 172.096 17.6863 171.627 16.7019C171.158 15.7175 170.549 14.9675 169.799 14.4753C169.049 13.9832 168.299 13.6316 167.549 13.3972C166.799 13.1628 166.025 13.0457 165.229 13.0457C161.924 13.0457 159.158 14.7332 156.932 18.0847V0.998779C153.721 1.95972 150.322 2.56909 146.736 2.8269V3.15503C147.604 3.74097 148.189 4.16284 148.471 4.44409C148.752 4.72534 149.01 5.2644 149.221 6.06128C149.432 6.85815 149.549 8.03003 149.549 9.55347V31.2332C149.549 32.9675 149.385 34.116 149.057 34.7019C148.729 35.2878 147.955 35.8972 146.736 36.53V36.8582H159.697V36.53C158.525 35.8972 157.775 35.2878 157.447 34.7019C157.119 34.116 156.955 32.9675 156.955 31.2332V19.7722C158.291 17.7566 159.814 16.7488 161.525 16.7488C162.557 16.7488 163.424 17.1238 164.104 17.8972C164.783 18.6707 165.135 19.7957 165.135 21.2957C165.135 21.3191 165.135 22.9832 165.111 26.2644C165.088 29.5457 165.088 31.2097 165.088 31.2332C165.088 32.9675 164.9 34.116 164.549 34.7019C164.197 35.2878 163.4 35.8972 162.182 36.53V36.8582H175.189V36.53C173.971 35.8972 173.197 35.2878 172.869 34.7019C172.541 34.116 172.377 32.9675 172.377 31.2332H172.33ZM197.807 28.3738C196.471 31.0222 194.244 32.3347 191.127 32.3113C188.83 32.3113 186.838 31.5613 185.174 30.0847C183.51 28.6082 182.666 26.3347 182.666 23.2878V22.6316H198.018V22.0457C198.018 21.2253 197.854 20.3347 197.525 19.3972C197.197 18.4597 196.658 17.4988 195.932 16.5144C195.205 15.53 194.15 14.7097 192.744 14.0535C191.338 13.3972 189.721 13.0691 187.893 13.0691C184.377 13.0691 181.518 14.1941 179.314 16.4441C177.111 18.6941 176.01 21.6238 176.01 25.2332C176.01 28.9128 177.135 31.8425 179.408 34.0222C181.682 36.2019 184.518 37.3035 187.939 37.3035C189.697 37.3035 191.244 36.9988 192.58 36.3894C193.916 35.78 194.947 34.9832 195.674 33.9753C196.4 32.9675 196.939 32.03 197.314 31.1863C197.689 30.3425 197.971 29.4519 198.158 28.5378L197.807 28.3738ZM187.119 14.3113C187.893 14.3113 188.572 14.5691 189.158 15.0613C189.744 15.5535 190.189 16.2097 190.494 17.0066C190.799 17.8035 191.01 18.5535 191.127 19.2566C191.244 19.9597 191.314 20.6628 191.338 21.366L182.76 21.4597C182.924 19.2097 183.369 17.4519 184.119 16.1863C184.869 14.9207 185.877 14.2878 187.119 14.2878V14.3113Z" fill="#00070E"/>
</svg>
