<svg width="199" height="36" viewBox="0 0 199 36" fill="none" xmlns="http://www.w3.org/2000/svg">
<path d="M0.960203 34.9844V1.38437H21.7442V4.69637H4.9922V16.4084H20.3042V19.6724H4.9922V31.6724H21.7442V34.9844H0.960203ZM27.814 34.9844V11.1764H31.462L31.702 15.4484C32.47 13.9444 33.574 12.7604 35.014 11.8964C36.454 11.0324 38.086 10.6004 39.91 10.6004C42.726 10.6004 44.966 11.4644 46.63 13.1924C48.326 14.8884 49.174 17.5124 49.174 21.0644V34.9844H45.142V21.4964C45.142 16.5364 43.094 14.0564 38.998 14.0564C36.95 14.0564 35.238 14.8084 33.862 16.3124C32.518 17.7844 31.846 19.8964 31.846 22.6484V34.9844H27.814ZM64.6907 34.9844C62.5147 34.9844 60.8027 34.4564 59.5547 33.4004C58.3067 32.3444 57.6827 30.4404 57.6827 27.6884V14.5844H53.5547V11.1764H57.6827L58.2107 5.46437H61.7147V11.1764H68.7227V14.5844H61.7147V27.6884C61.7147 29.1924 62.0187 30.2164 62.6267 30.7604C63.2347 31.2724 64.3067 31.5284 65.8427 31.5284H68.3387V34.9844H64.6907ZM83.893 35.5604C81.621 35.5604 79.605 35.0484 77.845 34.0244C76.085 32.9684 74.693 31.5124 73.669 29.6564C72.677 27.8004 72.181 25.6084 72.181 23.0804C72.181 20.5844 72.677 18.4084 73.669 16.5524C74.661 14.6644 76.037 13.2084 77.797 12.1844C79.589 11.1284 81.653 10.6004 83.989 10.6004C86.293 10.6004 88.277 11.1284 89.941 12.1844C91.637 13.2084 92.933 14.5684 93.829 16.2644C94.725 17.9604 95.173 19.7844 95.173 21.7364C95.173 22.0884 95.157 22.4404 95.125 22.7924C95.125 23.1444 95.125 23.5444 95.125 23.9924H76.165C76.261 25.8164 76.677 27.3364 77.413 28.5524C78.181 29.7364 79.125 30.6324 80.245 31.2404C81.397 31.8484 82.613 32.1524 83.893 32.1524C85.557 32.1524 86.949 31.7684 88.069 31.0004C89.189 30.2324 90.005 29.1924 90.517 27.8804H94.501C93.861 30.0884 92.629 31.9284 90.805 33.4004C89.013 34.8404 86.709 35.5604 83.893 35.5604ZM83.893 14.0084C81.973 14.0084 80.261 14.6004 78.757 15.7844C77.285 16.9364 76.437 18.6324 76.213 20.8724H91.189C91.093 18.7284 90.357 17.0484 88.981 15.8324C87.605 14.6164 85.909 14.0084 83.893 14.0084ZM100.517 34.9844V11.1764H104.165L104.501 15.7364C105.237 14.1684 106.357 12.9204 107.861 11.9924C109.365 11.0644 111.221 10.6004 113.429 10.6004V14.8244H112.325C110.917 14.8244 109.621 15.0804 108.437 15.5924C107.253 16.0724 106.309 16.9044 105.605 18.0884C104.901 19.2724 104.549 20.9044 104.549 22.9844V34.9844H100.517ZM140.066 34.9844C137.89 34.9844 136.178 34.4564 134.93 33.4004C133.682 32.3444 133.058 30.4404 133.058 27.6884V14.5844H128.93V11.1764H133.058L133.586 5.46437H137.09V11.1764H144.098V14.5844H137.09V27.6884C137.09 29.1924 137.394 30.2164 138.002 30.7604C138.61 31.2724 139.682 31.5284 141.218 31.5284H143.714V34.9844H140.066ZM149.22 34.9844V0.424374H153.252V15.2564C154.052 13.7844 155.188 12.6484 156.66 11.8484C158.132 11.0164 159.732 10.6004 161.46 10.6004C164.212 10.6004 166.42 11.4644 168.084 13.1924C169.748 14.8884 170.58 17.5124 170.58 21.0644V34.9844H166.596V21.4964C166.596 16.5364 164.596 14.0564 160.596 14.0564C158.516 14.0564 156.772 14.8084 155.364 16.3124C153.956 17.7844 153.252 19.8964 153.252 22.6484V34.9844H149.22ZM187.393 35.5604C185.121 35.5604 183.105 35.0484 181.345 34.0244C179.585 32.9684 178.193 31.5124 177.169 29.6564C176.177 27.8004 175.681 25.6084 175.681 23.0804C175.681 20.5844 176.177 18.4084 177.169 16.5524C178.161 14.6644 179.537 13.2084 181.297 12.1844C183.089 11.1284 185.153 10.6004 187.489 10.6004C189.793 10.6004 191.777 11.1284 193.441 12.1844C195.137 13.2084 196.433 14.5684 197.329 16.2644C198.225 17.9604 198.673 19.7844 198.673 21.7364C198.673 22.0884 198.657 22.4404 198.625 22.7924C198.625 23.1444 198.625 23.5444 198.625 23.9924H179.665C179.761 25.8164 180.177 27.3364 180.913 28.5524C181.681 29.7364 182.625 30.6324 183.745 31.2404C184.897 31.8484 186.113 32.1524 187.393 32.1524C189.057 32.1524 190.449 31.7684 191.569 31.0004C192.689 30.2324 193.505 29.1924 194.017 27.8804H198.001C197.361 30.0884 196.129 31.9284 194.305 33.4004C192.513 34.8404 190.209 35.5604 187.393 35.5604ZM187.393 14.0084C185.473 14.0084 183.761 14.6004 182.257 15.7844C180.785 16.9364 179.937 18.6324 179.713 20.8724H194.689C194.593 18.7284 193.857 17.0484 192.481 15.8324C191.105 14.6164 189.409 14.0084 187.393 14.0084Z" fill="#00070E"/>
</svg>
