<svg width="131" height="24" viewBox="0 0 131 24" fill="none" xmlns="http://www.w3.org/2000/svg">
<path d="M19.008 17.2304C18.3351 18.7139 17.4634 19.9833 16.3928 21.0538C15.3222 22.1244 14.1446 22.6597 12.8752 22.6597H11.9117C10.9176 22.6597 10.1376 22.522 9.55641 22.2467C8.97525 21.9715 8.68466 21.6197 8.68466 21.1762V12.214L11.254 12.1528C12.1258 12.1375 12.9211 12.3975 13.6552 12.9175C14.3893 13.4375 14.9552 14.0951 15.3681 14.8904H15.521V8.77284H15.3681C14.374 10.4093 12.9975 11.2199 11.2387 11.2199H8.66937V2.22706H11.1929C12.8446 2.22706 14.221 2.76235 15.3222 3.83292C16.4234 4.90349 17.2186 6.17288 17.6928 7.6258H17.9222L17.3563 1.24825H0.945958V1.46237C2.00124 1.92118 2.65887 2.34941 2.91887 2.73176C3.17886 3.11411 3.30122 3.92468 3.30122 5.16349V19.7233C3.30122 20.9621 3.16357 21.7726 2.90357 22.155C2.64358 22.5373 1.98594 22.9656 0.930664 23.4244V23.6385H18.4422L19.1916 17.2151L19.008 17.2304Z" fill="#00070E"/>
<path d="M37.5442 19.9833V12.8104C37.5442 11.9081 37.3913 11.1434 37.0854 10.501C36.7795 9.85871 36.3819 9.3693 35.8925 9.04813C35.4031 8.72696 34.9137 8.49755 34.4243 8.34461C33.9349 8.19167 33.4302 8.1152 32.9102 8.1152C30.7231 8.1152 28.8879 9.24695 27.4044 11.4952V8.05403C25.1715 8.72696 22.9844 9.1246 20.8586 9.24695V9.46107C21.6539 9.93518 22.1586 10.4093 22.3727 10.8681C22.5868 11.3269 22.6939 12.2446 22.6939 13.621V19.9985C22.6939 21.1303 22.5868 21.8797 22.3727 22.262C22.1586 22.6444 21.6539 23.042 20.8586 23.455V23.6691H29.3161V23.455C28.5514 23.042 28.062 22.6444 27.8479 22.262C27.6338 21.8797 27.5267 21.1303 27.5267 19.9985V12.5198C28.4902 11.2046 29.4843 10.5469 30.5243 10.5469C31.1973 10.5469 31.7478 10.7916 32.1761 11.281C32.6043 11.7704 32.8184 12.5198 32.8184 13.5139V17.8421V19.9985C32.8184 21.115 32.6961 21.8644 32.4667 22.2467C32.2372 22.6291 31.7173 23.0267 30.9067 23.4397V23.6538H39.3948V23.4397C38.5995 23.0267 38.0948 22.6291 37.8807 22.2467C37.6666 21.8644 37.5595 21.115 37.5595 19.9833H37.5442Z" fill="#00070E"/>
<path d="M45.237 23.9597C47.3017 23.9597 48.9535 22.935 50.1923 20.8703L50.0393 20.7021C49.3664 21.3903 48.6629 21.7421 47.9288 21.7421C47.3323 21.7421 46.8123 21.5279 46.3841 21.0844C45.9559 20.6409 45.757 19.9068 45.7723 18.8668L45.8641 9.49165H49.504L49.657 8.52814H45.8029V4.19997H45.4665C44.5947 5.60701 42.6371 7.21287 39.6089 9.00225V9.49165H41.0771V19.6162C41.0771 21.0385 41.4747 22.1244 42.27 22.8585C43.0653 23.5926 44.0594 23.9597 45.2523 23.9597H45.237Z" fill="#00070E"/>
<path d="M64.385 18.1174C63.5132 19.8456 62.0603 20.7021 60.0262 20.6868C58.5274 20.6868 57.2274 20.1974 56.1416 19.2339C55.0557 18.2703 54.5051 16.7868 54.5051 14.7986V14.3704H64.5226V13.9881C64.5226 13.4528 64.4156 12.8716 64.2015 12.2598C63.9873 11.6481 63.6356 11.021 63.1615 10.3787C62.6874 9.73636 61.9991 9.20107 61.0815 8.77284C60.1639 8.34461 59.1086 8.1305 57.9157 8.1305C55.6216 8.1305 53.7557 8.8646 52.3181 10.3328C50.8805 11.801 50.1617 13.7128 50.1617 16.068C50.1617 18.4692 50.8958 20.3809 52.3793 21.8032C53.8628 23.2256 55.7134 23.9444 57.9463 23.9444C59.0933 23.9444 60.1027 23.7455 60.9744 23.3479C61.8462 22.9503 62.5191 22.4303 62.9932 21.7726C63.4674 21.115 63.8191 20.5032 64.0638 19.9527C64.3085 19.4021 64.492 18.8209 64.6144 18.2245L64.385 18.1174ZM57.411 8.94107C57.9157 8.94107 58.3592 9.10931 58.7415 9.43048C59.1239 9.75165 59.4145 10.1799 59.6133 10.6999C59.8121 11.2199 59.9498 11.7093 60.0262 12.1681C60.1027 12.6269 60.1486 13.0857 60.1639 13.5445L54.5663 13.6057C54.6734 12.1375 54.964 10.9905 55.4534 10.1646C55.9428 9.33871 56.6004 8.92578 57.411 8.92578V8.94107Z" fill="#00070E"/>
<path d="M65.4097 23.6538H74.4637V23.4397C73.4237 23.0267 72.766 22.6291 72.4907 22.2467C72.2155 21.8644 72.0778 21.115 72.0778 19.9833V12.0916C72.4296 11.3269 72.9343 10.9446 73.5766 10.9446C74.4789 10.9293 75.5801 11.7857 76.8954 13.4986H77.1095L77.7365 8.46696C77.2777 8.23756 76.7883 8.1152 76.2683 8.1152C75.1519 8.1152 74.219 8.43638 73.4848 9.07872C72.7507 9.72106 72.246 10.4246 71.9708 11.2046H71.9096L71.9708 8.06932C69.7837 8.74225 67.5967 9.13989 65.425 9.26225V9.47636C66.205 9.91988 66.7097 10.3787 66.9391 10.8528C67.1685 11.3269 67.2755 12.1681 67.2755 13.3763V20.0138C67.2755 21.1456 67.1685 21.895 66.9544 22.2773C66.7402 22.6597 66.2355 23.0573 65.4403 23.4703L65.4097 23.6538Z" fill="#00070E"/>
<path d="M91.6081 23.9597C93.6728 23.9597 95.3245 22.935 96.5633 20.8703L96.4104 20.7021C95.7374 21.3903 95.0339 21.7421 94.2998 21.7421C93.7034 21.7421 93.1834 21.5279 92.7551 21.0844C92.3269 20.6409 92.1281 19.9068 92.1434 18.8668L92.2351 9.49165H95.8751L96.028 8.52814H92.174V4.19997H91.8375C90.9658 5.60701 89.0081 7.21287 85.9799 9.00225V9.49165H87.4482V19.6162C87.4482 21.0385 87.8458 22.1244 88.6411 22.8585C89.4364 23.5926 90.4305 23.9597 91.6234 23.9597H91.6081Z" fill="#00070E"/>
<path d="M113.31 19.9833V12.8104C113.31 11.9081 113.157 11.1434 112.851 10.501C112.545 9.85871 112.148 9.3693 111.658 9.04813C111.169 8.72696 110.68 8.49755 110.19 8.34461C109.701 8.19167 109.196 8.1152 108.676 8.1152C106.52 8.1152 104.715 9.21636 103.262 11.4034V0.25415C101.167 0.881199 98.9492 1.27884 96.6092 1.44707V1.66119C97.1751 2.04353 97.5574 2.31882 97.7409 2.50235C97.9245 2.68588 98.0927 3.03764 98.2303 3.55763C98.368 4.07762 98.4445 4.84231 98.4445 5.83642V19.9833C98.4445 21.115 98.3374 21.8644 98.1233 22.2467C97.9092 22.6291 97.4045 23.0267 96.6092 23.4397V23.6538H105.067V23.4397C104.302 23.0267 103.813 22.6291 103.599 22.2467C103.384 21.8644 103.277 21.115 103.277 19.9833V12.5045C104.149 11.1893 105.143 10.5316 106.26 10.5316C106.933 10.5316 107.498 10.7763 107.942 11.281C108.385 11.7857 108.615 12.5198 108.615 13.4986C108.615 13.5139 108.615 14.5998 108.6 16.741C108.584 18.8821 108.584 19.968 108.584 19.9833C108.584 21.115 108.462 21.8644 108.233 22.2467C108.003 22.6291 107.483 23.0267 106.688 23.4397V23.6538H115.176V23.4397C114.381 23.0267 113.876 22.6291 113.662 22.2467C113.448 21.8644 113.341 21.115 113.341 19.9833H113.31Z" fill="#00070E"/>
<path d="M129.935 18.1174C129.063 19.8456 127.61 20.7021 125.576 20.6868C124.077 20.6868 122.777 20.1974 121.691 19.2339C120.605 18.2703 120.055 16.7868 120.055 14.7986V14.3704H130.072V13.9881C130.072 13.4528 129.965 12.8716 129.751 12.2598C129.537 11.6481 129.185 11.021 128.711 10.3787C128.237 9.73636 127.549 9.20107 126.631 8.77284C125.713 8.34461 124.658 8.1305 123.465 8.1305C121.171 8.1305 119.305 8.8646 117.868 10.3328C116.43 11.801 115.711 13.7128 115.711 16.068C115.711 18.4692 116.445 20.3809 117.929 21.8032C119.412 23.2256 121.263 23.9444 123.496 23.9444C124.643 23.9444 125.652 23.7455 126.524 23.3479C127.396 22.9503 128.069 22.4303 128.543 21.7726C129.017 21.115 129.369 20.5032 129.613 19.9527C129.858 19.4021 130.042 18.8209 130.164 18.2245L129.935 18.1174ZM122.961 8.94107C123.465 8.94107 123.909 9.10931 124.291 9.43048C124.673 9.75165 124.964 10.1799 125.163 10.6999C125.362 11.2199 125.499 11.7093 125.576 12.1681C125.652 12.6269 125.698 13.0857 125.713 13.5445L120.116 13.6057C120.223 12.1375 120.514 10.9905 121.003 10.1646C121.492 9.33871 122.15 8.92578 122.961 8.92578V8.94107Z" fill="#00070E"/>
</svg>
