<svg xmlns="http://www.w3.org/2000/svg" viewBox="0 0 4686.79 3150.15"><defs><style>.cls-1{fill:#fff;}</style></defs><g id="Layer_2" data-name="Layer 2"><g id="DESIGNED_BY_FREEPIK" data-name="DESIGNED BY FREEPIK"><polygon class="cls-1" points="1575 916.2 1577.79 921.3 1582.89 924.09 1577.79 926.88 1575 931.99 1572.21 926.88 1567.11 924.09 1572.21 921.3 1575 916.2"/><polygon class="cls-1" points="1962.69 517.46 1965.48 522.57 1970.59 525.36 1965.48 528.15 1962.69 533.25 1959.9 528.15 1954.8 525.36 1959.9 522.57 1962.69 517.46"/><polygon class="cls-1" points="3245.19 1877.85 3247.98 1882.95 3253.09 1885.74 3247.98 1888.53 3245.19 1893.64 3242.4 1888.53 3237.3 1885.74 3242.4 1882.95 3245.19 1877.85"/><polygon class="cls-1" points="2313.9 1768.5 2316.69 1773.6 2321.79 1776.39 2316.69 1779.18 2313.9 1784.29 2311.11 1779.18 2306.01 1776.39 2311.11 1773.6 2313.9 1768.5"/><polygon class="cls-1" points="2861.79 1170.45 2864.58 1175.55 2869.69 1178.34 2864.58 1181.13 2861.79 1186.24 2859 1181.13 2853.9 1178.34 2859 1175.55 2861.79 1170.45"/><polygon class="cls-1" points="2483.79 868.05 2486.58 873.15 2491.69 875.94 2486.58 878.73 2483.79 883.84 2481 878.73 2475.9 875.94 2481 873.15 2483.79 868.05"/><polygon class="cls-1" points="1328.19 1894.05 1330.98 1899.15 1336.09 1901.94 1330.98 1904.73 1328.19 1909.84 1325.4 1904.73 1320.3 1901.94 1325.4 1899.15 1328.19 1894.05"/><polygon class="cls-1" points="2524.29 2274.75 2527.08 2279.85 2532.19 2282.64 2527.08 2285.43 2524.29 2290.54 2521.5 2285.43 2516.4 2282.64 2521.5 2279.85 2524.29 2274.75"/><polygon class="cls-1" points="2775.39 1894.05 2778.18 1899.15 2783.29 1901.94 2778.18 1904.73 2775.39 1909.84 2772.6 1904.73 2767.5 1901.94 2772.6 1899.15 2775.39 1894.05"/><polygon class="cls-1" points="869.19 1403.79 871.98 1408.9 877.09 1411.69 871.98 1414.48 869.19 1419.58 866.4 1414.48 861.3 1411.69 866.4 1408.9 869.19 1403.79"/><polygon class="cls-1" points="1806.09 1256.85 1808.88 1261.95 1813.99 1264.74 1808.88 1267.53 1806.09 1272.64 1803.3 1267.53 1798.2 1264.74 1803.3 1261.95 1806.09 1256.85"/><polygon class="cls-1" points="528.99 665.55 531.78 670.65 536.89 673.44 531.78 676.23 528.99 681.34 526.2 676.23 521.1 673.44 526.2 670.65 528.99 665.55"/><polygon class="cls-1" points="510.09 2236.95 512.88 2242.05 517.99 2244.84 512.88 2247.63 510.09 2252.74 507.3 2247.63 502.2 2244.84 507.3 2242.05 510.09 2236.95"/><polygon class="cls-1" points="1595.49 2949.75 1598.28 2954.85 1603.39 2957.64 1598.28 2960.43 1595.49 2965.54 1592.7 2960.43 1587.6 2957.64 1592.7 2954.85 1595.49 2949.75"/><polygon class="cls-1" points="3234.39 2223.45 3237.18 2228.55 3242.29 2231.34 3237.18 2234.13 3234.39 2239.24 3231.6 2234.13 3226.5 2231.34 3231.6 2228.55 3234.39 2223.45"/><polygon class="cls-1" points="3849.99 1205.55 3852.78 1210.65 3857.89 1213.44 3852.78 1216.23 3849.99 1221.34 3847.2 1216.23 3842.1 1213.44 3847.2 1210.65 3849.99 1205.55"/><polygon class="cls-1" points="4649.4 37.8 4652.19 42.9 4657.29 45.69 4652.19 48.48 4649.4 53.59 4646.61 48.48 4641.51 45.69 4646.61 42.9 4649.4 37.8"/><polygon class="cls-1" points="4678.89 3134.36 4681.68 3139.47 4686.79 3142.26 4681.68 3145.05 4678.89 3150.15 4676.1 3145.05 4671 3142.26 4676.1 3139.47 4678.89 3134.36"/><polygon class="cls-1" points="7.89 3134.36 10.68 3139.47 15.79 3142.26 10.68 3145.05 7.89 3150.15 5.1 3145.05 0 3142.26 5.1 3139.47 7.89 3134.36"/><polygon class="cls-1" points="15.79 0 18.58 5.1 23.68 7.89 18.58 10.68 15.79 15.79 13 10.68 7.89 7.89 13 5.1 15.79 0"/><polygon class="cls-1" points="3544.89 533.25 3547.68 538.35 3552.79 541.14 3547.68 543.93 3544.89 549.04 3542.1 543.93 3537 541.14 3542.1 538.35 3544.89 533.25"/><polygon class="cls-1" points="3787.98 2448.99 3790.78 2454.09 3795.88 2456.88 3790.78 2459.68 3787.98 2464.78 3785.19 2459.68 3780.09 2456.88 3785.19 2454.09 3787.98 2448.99"/></g></g></svg>