<svg width="281" height="40" viewBox="0 0 281 40" fill="none" xmlns="http://www.w3.org/2000/svg">
<path d="M0.445312 38.6275V1.52753H13.4303C16.3276 1.52753 18.7303 2.02219 20.6383 3.01153C22.5463 3.96553 23.9596 5.29053 24.8783 6.98653C25.8323 8.6472 26.3093 10.5375 26.3093 12.6575C26.3093 14.6715 25.85 16.5265 24.9313 18.2225C24.048 19.8832 22.6523 21.2082 20.7443 22.1975C18.8363 23.1869 16.3983 23.6815 13.4303 23.6815H6.06331V38.6275H0.445312ZM6.06331 19.0705H13.1653C15.8153 19.0705 17.7056 18.5052 18.8363 17.3745C20.0023 16.2085 20.5853 14.6362 20.5853 12.6575C20.5853 10.6082 20.0023 9.0182 18.8363 7.88753C17.7056 6.72153 15.8153 6.13853 13.1653 6.13853H6.06331V19.0705Z" fill="white"/>
<path d="M31.6503 38.6275V0.467529H37.2683V38.6275H31.6503Z" fill="white"/>
<path d="M53.2867 39.2635C51.0607 39.2635 49.2234 38.8925 47.7747 38.1505C46.3261 37.4085 45.2484 36.4369 44.5417 35.2355C43.8351 33.9989 43.4817 32.6562 43.4817 31.2075C43.4817 28.6635 44.4711 26.6495 46.4497 25.1655C48.4284 23.6815 51.2551 22.9395 54.9297 22.9395H61.8197V22.4625C61.8197 20.4132 61.2544 18.8762 60.1237 17.8515C59.0284 16.8269 57.5974 16.3145 55.8307 16.3145C54.2761 16.3145 52.9157 16.7032 51.7497 17.4805C50.6191 18.2225 49.9301 19.3355 49.6827 20.8195H44.0647C44.2414 18.9115 44.8774 17.2862 45.9727 15.9435C47.1034 14.5655 48.5167 13.5232 50.2127 12.8165C51.9441 12.0745 53.8344 11.7035 55.8837 11.7035C59.5584 11.7035 62.4027 12.6752 64.4167 14.6185C66.4307 16.5265 67.4377 19.1412 67.4377 22.4625V38.6275H62.5617L62.0847 34.1225C61.3427 35.5712 60.2651 36.7902 58.8517 37.7795C57.4384 38.7689 55.5834 39.2635 53.2867 39.2635ZM54.3997 34.7055C55.9191 34.7055 57.1911 34.3522 58.2157 33.6455C59.2757 32.9035 60.0884 31.9319 60.6537 30.7305C61.2544 29.5292 61.6254 28.2042 61.7667 26.7555H55.5127C53.2867 26.7555 51.6967 27.1442 50.7427 27.9215C49.8241 28.6989 49.3647 29.6705 49.3647 30.8365C49.3647 32.0379 49.8064 32.9919 50.6897 33.6985C51.6084 34.3699 52.8451 34.7055 54.3997 34.7055Z" fill="white"/>
<path d="M73.9882 38.6275V12.3395H78.9702L79.3942 16.9505C80.2069 15.3252 81.3905 14.0532 82.9452 13.1345C84.5352 12.1805 86.3549 11.7035 88.4042 11.7035C91.5842 11.7035 94.0752 12.6929 95.8772 14.6715C97.7145 16.6502 98.6332 19.6005 98.6332 23.5225V38.6275H93.0682V24.1055C93.0682 19.0175 90.9835 16.4735 86.8142 16.4735C84.7295 16.4735 82.9982 17.2155 81.6202 18.6995C80.2775 20.1835 79.6062 22.3035 79.6062 25.0595V38.6275H73.9882Z" fill="white"/>
<path d="M117.546 39.2635C114.967 39.2635 112.67 38.6982 110.656 37.5675C108.677 36.4015 107.123 34.7939 105.992 32.7445C104.861 30.6952 104.296 28.3102 104.296 25.5895C104.296 22.8335 104.844 20.4132 105.939 18.3285C107.07 16.2439 108.624 14.6185 110.603 13.4525C112.617 12.2865 114.949 11.7035 117.599 11.7035C120.178 11.7035 122.422 12.2865 124.33 13.4525C126.238 14.5832 127.722 16.1025 128.782 18.0105C129.842 19.9185 130.372 22.0209 130.372 24.3175C130.372 24.6709 130.354 25.0595 130.319 25.4835C130.319 25.8722 130.301 26.3139 130.266 26.8085H109.808C109.985 29.3525 110.815 31.2959 112.299 32.6385C113.818 33.9459 115.567 34.5995 117.546 34.5995C119.136 34.5995 120.461 34.2462 121.521 33.5395C122.616 32.7975 123.429 31.8082 123.959 30.5715H129.577C128.87 33.0449 127.457 35.1119 125.337 36.7725C123.252 38.4332 120.655 39.2635 117.546 39.2635ZM117.546 16.3145C115.673 16.3145 114.013 16.8799 112.564 18.0105C111.115 19.1059 110.232 20.7665 109.914 22.9925H124.754C124.648 20.9432 123.924 19.3179 122.581 18.1165C121.238 16.9152 119.56 16.3145 117.546 16.3145Z" fill="white"/>
<path d="M146.552 38.6275C143.973 38.6275 141.924 38.0092 140.404 36.7725C138.885 35.5005 138.125 33.2569 138.125 30.0415V17.0565H133.62V12.3395H138.125L138.814 5.66153H143.743V12.3395H151.163V17.0565H143.743V30.0415C143.743 31.4902 144.044 32.4972 144.644 33.0625C145.28 33.5925 146.358 33.8575 147.877 33.8575H150.898V38.6275H146.552Z" fill="white"/>
<path d="M158.281 38.6275V17.0565H154.518V12.3395H158.281V8.52353C158.281 5.66153 158.988 3.6122 160.401 2.37553C161.85 1.10353 163.881 0.467529 166.496 0.467529H169.252V5.23753H167.344C166.107 5.23753 165.224 5.50253 164.694 6.03253C164.164 6.5272 163.899 7.3752 163.899 8.57653V12.3395H169.941V17.0565H163.899V38.6275H158.281Z" fill="white"/>
<path d="M183.147 39.2635C180.921 39.2635 179.084 38.8925 177.635 38.1505C176.186 37.4085 175.109 36.4369 174.402 35.2355C173.695 33.9989 173.342 32.6562 173.342 31.2075C173.342 28.6635 174.331 26.6495 176.31 25.1655C178.289 23.6815 181.115 22.9395 184.79 22.9395H191.68V22.4625C191.68 20.4132 191.115 18.8762 189.984 17.8515C188.889 16.8269 187.458 16.3145 185.691 16.3145C184.136 16.3145 182.776 16.7032 181.61 17.4805C180.479 18.2225 179.79 19.3355 179.543 20.8195H173.925C174.102 18.9115 174.738 17.2862 175.833 15.9435C176.964 14.5655 178.377 13.5232 180.073 12.8165C181.804 12.0745 183.695 11.7035 185.744 11.7035C189.419 11.7035 192.263 12.6752 194.277 14.6185C196.291 16.5265 197.298 19.1412 197.298 22.4625V38.6275H192.422L191.945 34.1225C191.203 35.5712 190.125 36.7902 188.712 37.7795C187.299 38.7689 185.444 39.2635 183.147 39.2635ZM184.26 34.7055C185.779 34.7055 187.051 34.3522 188.076 33.6455C189.136 32.9035 189.949 31.9319 190.514 30.7305C191.115 29.5292 191.486 28.2042 191.627 26.7555H185.373C183.147 26.7555 181.557 27.1442 180.603 27.9215C179.684 28.6989 179.225 29.6705 179.225 30.8365C179.225 32.0379 179.667 32.9919 180.55 33.6985C181.469 34.3699 182.705 34.7055 184.26 34.7055Z" fill="white"/>
<path d="M203.849 38.6275V0.467529H209.467V38.6275H203.849Z" fill="white"/>
<path d="M216.581 38.6275V0.467529H222.199V38.6275H216.581Z" fill="white"/>
<path d="M245.847 7.35753C244.787 7.35753 243.904 7.03953 243.197 6.40353C242.526 5.7322 242.19 4.90186 242.19 3.91253C242.19 2.9232 242.526 2.11053 243.197 1.47453C243.904 0.803196 244.787 0.467529 245.847 0.467529C246.907 0.467529 247.773 0.803196 248.444 1.47453C249.151 2.11053 249.504 2.9232 249.504 3.91253C249.504 4.90186 249.151 5.7322 248.444 6.40353C247.773 7.03953 246.907 7.35753 245.847 7.35753ZM243.038 38.6275V12.3395H248.656V38.6275H243.038Z" fill="white"/>
<path d="M256.072 38.6275V12.3395H261.054L261.478 16.9505C262.291 15.3252 263.475 14.0532 265.029 13.1345C266.619 12.1805 268.439 11.7035 270.488 11.7035C273.668 11.7035 276.159 12.6929 277.961 14.6715C279.799 16.6502 280.717 19.6005 280.717 23.5225V38.6275H275.152V24.1055C275.152 19.0175 273.068 16.4735 268.898 16.4735C266.814 16.4735 265.082 17.2155 263.704 18.6995C262.362 20.1835 261.69 22.3035 261.69 25.0595V38.6275H256.072Z" fill="white"/>
</svg>
