<svg width="294" height="38" viewBox="0 0 294 38" fill="none" xmlns="http://www.w3.org/2000/svg">
<path d="M0.541016 0.700195H9.12702C12.0243 0.700195 14.1973 1.47753 15.646 3.0322C17.0947 4.58686 17.819 6.86586 17.819 9.8692V13.5262C17.819 16.5295 17.0947 18.8085 15.646 20.3632C14.1973 21.9179 12.0243 22.6952 9.12702 22.6952H6.37102V37.8002H0.541016V0.700195ZM9.12702 17.3952C10.081 17.3952 10.7877 17.1302 11.247 16.6002C11.7417 16.0702 11.989 15.1692 11.989 13.8972V9.4982C11.989 8.2262 11.7417 7.3252 11.247 6.7952C10.7877 6.2652 10.081 6.0002 9.12702 6.0002H6.37102V17.3952H9.12702Z" fill="white"/>
<path d="M26.0204 0.700195H31.8504V32.5002H41.4434V37.8002H26.0204V0.700195Z" fill="white"/>
<path d="M53.9861 0.700195H61.8831L67.9251 37.8002H62.0951L61.0351 30.4332V30.5392H54.4101L53.3501 37.8002H47.9441L53.9861 0.700195ZM60.3461 25.5042L57.7491 7.1662H57.6431L55.0991 25.5042H60.3461Z" fill="white"/>
<path d="M75.7886 0.700195H83.1026L88.7736 22.9072H88.8796V0.700195H94.0736V37.8002H88.0846L81.0886 10.7172H80.9826V37.8002H75.7886V0.700195Z" fill="white"/>
<path d="M103.442 0.700195H119.342V6.0002H109.272V15.8052H117.275V21.1052H109.272V32.5002H119.342V37.8002H103.442V0.700195Z" fill="white"/>
<path d="M132.289 6.0002H126.194V0.700195H144.214V6.0002H138.119V37.8002H132.289V6.0002Z" fill="white"/>
<path d="M152.071 0.700195H167.494V6.0002H157.901V16.3352H165.427V21.6352H157.901V37.8002H152.071V0.700195Z" fill="white"/>
<path d="M178.122 0.700195H186.019L192.061 37.8002H186.231L185.171 30.4332V30.5392H178.546L177.486 37.8002H172.08L178.122 0.700195ZM184.482 25.5042L181.885 7.1662H181.779L179.235 25.5042H184.482Z" fill="white"/>
<path d="M199.925 0.700195H205.755V32.5002H215.348V37.8002H199.925V0.700195Z" fill="white"/>
<path d="M223.178 0.700195H229.008V32.5002H238.601V37.8002H223.178V0.700195Z" fill="white"/>
<path d="M259.955 0.700195H265.785V37.8002H259.955V0.700195Z" fill="white"/>
<path d="M275.187 0.700195H282.501L288.172 22.9072H288.278V0.700195H293.472V37.8002H287.483L280.487 10.7172H280.381V37.8002H275.187V0.700195Z" fill="white"/>
</svg>
