<svg width="276" height="37" viewBox="0 0 276 37" fill="none" xmlns="http://www.w3.org/2000/svg">
<path d="M31.4883 10.9983C31.4883 8.02173 30.3398 5.74829 28.043 4.15454C25.7461 2.56079 22.3945 1.76392 17.9648 1.76392H0.972656V2.09204C2.44922 2.86548 3.36328 3.54517 3.73828 4.15454C4.11328 4.76392 4.30078 5.95923 4.30078 7.71704V30.1233C4.30078 31.8811 4.11328 33.0764 3.73828 33.6858C3.36328 34.2952 2.44922 34.9749 0.972656 35.7483V36.0764H17.707V35.7483C16.1133 34.9749 15.1055 34.2952 14.707 33.7092C14.3086 33.1233 14.0977 31.928 14.0977 30.1233V20.8655C25.6758 20.8655 31.4648 17.5608 31.4648 10.9749L31.4883 10.9983ZM15.293 3.33423C19.8164 3.33423 22.0664 5.91235 22.0664 11.0686C22.0664 16.5999 19.418 19.3655 14.0977 19.3655V3.33423H15.293Z" fill="#FEFEFE"/>
<path d="M32.4961 36.0999H46.3242V35.7717C45.3164 35.092 44.6602 34.4592 44.3555 33.8733C44.0508 33.2874 43.8867 32.1389 43.8867 30.428V0.287354C40.418 1.34204 36.6445 2.02173 32.543 2.32642V2.67798C33.3164 3.35767 33.8086 3.84985 34.043 4.1311C34.2773 4.41235 34.4883 4.95142 34.6758 5.72485C34.8633 6.49829 34.957 7.64673 34.957 9.17017V30.3811C34.957 32.092 34.8164 33.2405 34.5352 33.8264C34.2539 34.4124 33.5742 35.0217 32.5195 35.6545L32.4961 36.0999Z" fill="#FEFEFE"/>
<path d="M67.7695 36.5686C69.5977 36.5686 71.0742 36.0764 72.1992 35.1155C73.3242 34.1545 74.1211 33.0061 74.5664 31.6702L74.1914 31.4592C73.6523 32.678 72.9727 33.2874 72.1758 33.2874C71.4023 33.3108 71.0273 32.7952 71.0273 31.7405L71.2617 21.4514C71.2852 20.5608 71.2617 19.7639 71.1914 19.0608C71.1211 18.3577 70.8867 17.5608 70.5117 16.6702C70.1367 15.7795 69.6211 15.0295 68.9648 14.4202C68.3086 13.8108 67.3711 13.2952 66.1289 12.8733C64.8867 12.4514 63.4102 12.2405 61.6992 12.2405C58.4414 12.2405 55.793 12.8733 53.7773 14.1389C51.7617 15.4045 50.3555 16.8577 49.5586 18.5217L55.418 21.7561L55.6992 21.7092C56.0039 19.5295 56.543 17.6077 57.3164 15.967C58.0898 14.3264 59.0977 13.5061 60.3398 13.5061C61.1602 13.5061 61.7695 13.8108 62.1445 14.3967C62.5195 14.9827 62.707 15.6858 62.707 16.4827L62.6602 20.6545C57.9258 21.803 54.2461 23.1858 51.6211 24.7795C48.9961 26.3733 47.6836 28.4124 47.6836 30.8733C47.6836 32.5374 48.2695 33.8967 49.4648 34.9749C50.6602 36.053 52.2539 36.592 54.2461 36.592C56.1914 36.592 57.9023 36.0764 59.3789 35.0452C60.8555 34.0139 61.9336 32.7952 62.6133 31.3889H62.707C62.6367 32.7952 62.9883 34.0139 63.7617 35.0452C64.5352 36.0764 65.8477 36.592 67.6992 36.592L67.7695 36.5686ZM59.3555 31.6702C58.6289 31.6702 58.043 31.3655 57.5977 30.7561C57.1523 30.1467 56.918 29.2561 56.918 28.1077C56.918 24.9436 58.8633 22.8108 62.7305 21.7092L62.543 29.7717C61.6289 31.0139 60.5742 31.6467 59.3789 31.6467L59.3555 31.6702Z" fill="#FEFEFE"/>
<path d="M101.848 30.4749V19.6936C101.848 18.1702 101.59 16.8811 101.074 15.803C100.559 14.7249 99.8789 13.9514 99.0352 13.4827C98.1914 13.0139 97.3945 12.6858 96.668 12.4983C95.9414 12.3108 95.2148 12.217 94.4883 12.217C92.5898 12.217 90.9492 12.7327 89.543 13.7405C88.1367 14.7483 87.0117 15.8733 86.1914 17.1155V12.1233C82.3711 13.2483 78.6445 13.9045 75.0117 14.092V14.4202C76.043 15.2639 76.6992 16.0374 76.9805 16.7405C77.2617 17.4436 77.4023 18.8499 77.4023 20.9592V30.4983C77.4023 32.2092 77.2617 33.3577 76.9805 33.9436C76.6992 34.5295 76.0195 35.1389 74.9648 35.7717V36.0999H88.793V35.7717C87.7852 35.092 87.1289 34.4592 86.8242 33.8733C86.5195 33.2874 86.3555 32.1389 86.3555 30.428V18.7795C87.5273 17.2092 88.7461 16.4124 89.9883 16.4124C90.9023 16.4124 91.6523 16.7405 92.2383 17.4202C92.8242 18.0999 93.1055 19.1311 93.1055 20.5139C93.1055 25.7405 93.082 29.0452 93.0586 30.4514C92.9883 32.1624 92.8242 33.2874 92.5664 33.8499C92.3086 34.4124 91.6289 35.0452 90.5273 35.7483V36.0764H104.355V35.7483C103.301 35.1155 102.621 34.5061 102.34 33.9202C102.059 33.3342 101.918 32.1858 101.918 30.4749H101.848Z" fill="#FEFEFE"/>
<path d="M127.84 27.217C126.434 29.6311 124.23 30.8264 121.254 30.8264C118.98 30.8264 117.059 30.1467 115.465 28.7874C113.871 27.428 113.074 25.2952 113.074 22.3655V21.9436H128.051V21.4045C128.051 18.9905 127.137 16.8342 125.332 14.9592C123.527 13.0842 120.879 12.1467 117.387 12.1467C113.801 12.1467 110.824 13.2014 108.48 15.2874C106.137 17.3733 104.965 20.3499 104.965 24.1936C104.965 28.0608 106.137 31.0842 108.48 33.2639C110.824 35.4436 113.777 36.5452 117.316 36.5452C123.176 36.5452 126.762 33.4983 128.074 27.3811L127.84 27.217ZM116.52 13.5061C118.793 13.5061 119.988 15.8733 120.105 20.6311H113.098C113.309 15.8733 114.457 13.5061 116.543 13.5061H116.52Z" fill="#FEFEFE"/>
<path d="M138.598 36.5686C142.137 36.5686 144.949 34.8108 147.035 31.2952L146.754 31.0139C145.793 31.9983 144.762 32.4905 143.66 32.4905C141.621 32.4905 140.613 31.1077 140.637 28.3655L140.801 14.4436H145.84L146.074 12.8264H140.684V5.8186H140.121C138.551 8.02173 135.082 10.5999 129.715 13.5764V14.4436H131.895V29.8186C131.895 32.0452 132.527 33.7327 133.793 34.8577C135.059 35.9827 136.652 36.5452 138.598 36.5452V36.5686Z" fill="#FEFEFE"/>
<path d="M155.848 1.6936C157.371 1.6936 159.082 3.68579 160.98 7.6936L161.262 7.83423L166.301 1.92798C162.973 0.638916 160.16 0.00610352 157.863 0.00610352C152.402 0.00610352 149.66 3.96704 149.66 11.9124V12.8264H147.246V14.4436H149.66V30.4749C149.66 32.1858 149.52 33.3342 149.238 33.9202C148.957 34.5061 148.277 35.1155 147.223 35.7483V36.0764H161.285V35.7483C160.137 35.0686 159.41 34.4358 159.082 33.8499C158.754 33.2639 158.59 32.1155 158.59 30.4045V14.3733H163.77L164.191 12.7561H158.59C155.988 8.32642 154.699 5.13892 154.699 3.1936C154.699 2.13892 155.074 1.62329 155.848 1.62329V1.6936Z" fill="#FEFEFE"/>
<path d="M184.723 36.5686C186.551 36.5686 188.027 36.0764 189.152 35.1155C190.277 34.1545 191.074 33.0061 191.52 31.6702L191.145 31.4592C190.605 32.678 189.926 33.2874 189.129 33.2874C188.355 33.3108 187.98 32.7952 187.98 31.7405L188.215 21.4514C188.238 20.5608 188.215 19.7639 188.145 19.0608C188.074 18.3577 187.84 17.5608 187.465 16.6702C187.09 15.7795 186.574 15.0295 185.918 14.4202C185.262 13.8108 184.324 13.2952 183.082 12.8733C181.84 12.4514 180.363 12.2405 178.652 12.2405C175.395 12.2405 172.746 12.8733 170.73 14.1389C168.715 15.4045 167.309 16.8577 166.512 18.5217L172.371 21.7561L172.652 21.7092C172.957 19.5295 173.496 17.6077 174.27 15.967C175.043 14.3264 176.051 13.5061 177.293 13.5061C178.113 13.5061 178.723 13.8108 179.098 14.3967C179.473 14.9827 179.66 15.6858 179.66 16.4827L179.613 20.6545C174.879 21.803 171.199 23.1858 168.574 24.7795C165.949 26.3733 164.637 28.4124 164.637 30.8733C164.637 32.5374 165.223 33.8967 166.418 34.9749C167.613 36.053 169.207 36.592 171.199 36.592C173.145 36.592 174.855 36.0764 176.332 35.0452C177.809 34.0139 178.887 32.7952 179.566 31.3889H179.66C179.59 32.7952 179.941 34.0139 180.715 35.0452C181.488 36.0764 182.801 36.592 184.652 36.592L184.723 36.5686ZM176.309 31.6702C175.582 31.6702 174.996 31.3655 174.551 30.7561C174.105 30.1467 173.871 29.2561 173.871 28.1077C173.871 24.9436 175.816 22.8108 179.684 21.7092L179.496 29.7717C178.582 31.0139 177.527 31.6467 176.332 31.6467L176.309 31.6702Z" fill="#FEFEFE"/>
<path d="M191.871 36.0999H205.699V35.7717C204.691 35.092 204.035 34.4592 203.73 33.8733C203.426 33.2874 203.262 32.1389 203.262 30.428V0.287354C199.793 1.34204 196.02 2.02173 191.918 2.32642V2.67798C192.691 3.35767 193.184 3.84985 193.418 4.1311C193.652 4.41235 193.863 4.95142 194.051 5.72485C194.238 6.49829 194.332 7.64673 194.332 9.17017V30.3811C194.332 32.092 194.191 33.2405 193.91 33.8264C193.629 34.4124 192.949 35.0217 191.895 35.6545L191.871 36.0999Z" fill="#FEFEFE"/>
<path d="M206.168 36.0999H219.996V35.7717C218.988 35.092 218.332 34.4592 218.027 33.8733C217.723 33.2874 217.559 32.1389 217.559 30.428V0.287354C214.09 1.34204 210.316 2.02173 206.215 2.32642V2.67798C206.988 3.35767 207.48 3.84985 207.715 4.1311C207.949 4.41235 208.16 4.95142 208.348 5.72485C208.535 6.49829 208.629 7.64673 208.629 9.17017V30.3811C208.629 32.092 208.488 33.2405 208.207 33.8264C207.926 34.4124 207.246 35.0217 206.191 35.6545L206.168 36.0999Z" fill="#FEFEFE"/>
<path d="M237.738 9.84985C238.934 9.84985 239.965 9.45142 240.832 8.6311C241.699 7.81079 242.121 6.84985 242.121 5.72485C242.121 4.59985 241.699 3.63892 240.832 2.8186C239.965 1.99829 238.934 1.59985 237.738 1.59985C236.52 1.59985 235.465 2.02173 234.598 2.84204C233.73 3.66235 233.285 4.62329 233.285 5.74829C233.285 6.87329 233.707 7.83423 234.574 8.65454C235.441 9.47485 236.473 9.89673 237.691 9.89673L237.738 9.84985ZM231.246 36.1467H245.074V35.8186C244.066 35.1389 243.41 34.5061 243.105 33.9202C242.801 33.3342 242.637 32.1858 242.637 30.4749V12.0999C238.91 13.2014 235.137 13.8811 231.293 14.1389V14.5139C232.02 15.1467 232.512 15.6155 232.77 15.9202C233.027 16.2249 233.238 16.7639 233.426 17.5608C233.613 18.3577 233.707 19.5061 233.707 21.0061V30.4983C233.707 32.2092 233.566 33.3577 233.285 33.9436C233.004 34.5295 232.324 35.1389 231.27 35.7717L231.246 36.1467Z" fill="#FEFEFE"/>
<path d="M272.52 30.4749V19.6936C272.52 18.1702 272.262 16.8811 271.746 15.803C271.23 14.7249 270.551 13.9514 269.707 13.4827C268.863 13.0139 268.066 12.6858 267.34 12.4983C266.613 12.3108 265.887 12.217 265.16 12.217C263.262 12.217 261.621 12.7327 260.215 13.7405C258.809 14.7483 257.684 15.8733 256.863 17.1155V12.1233C253.043 13.2483 249.316 13.9045 245.684 14.092V14.4202C246.715 15.2639 247.371 16.0374 247.652 16.7405C247.934 17.4436 248.074 18.8499 248.074 20.9592V30.4983C248.074 32.2092 247.934 33.3577 247.652 33.9436C247.371 34.5295 246.691 35.1389 245.637 35.7717V36.0999H259.465V35.7717C258.457 35.092 257.801 34.4592 257.496 33.8733C257.191 33.2874 257.027 32.1389 257.027 30.428V18.7795C258.199 17.2092 259.418 16.4124 260.66 16.4124C261.574 16.4124 262.324 16.7405 262.91 17.4202C263.496 18.0999 263.777 19.1311 263.777 20.5139C263.777 25.7405 263.754 29.0452 263.73 30.4514C263.66 32.1624 263.496 33.2874 263.238 33.8499C262.98 34.4124 262.301 35.0452 261.199 35.7483V36.0764H275.027V35.7483C273.973 35.1155 273.293 34.5061 273.012 33.9202C272.73 33.3342 272.59 32.1858 272.59 30.4749H272.52Z" fill="#FEFEFE"/>
</svg>
